<svg xmlns="http://www.w3.org/2000/svg" viewBox="0 0 1400 560">
  <defs>
    <linearGradient id="bg" x1="0%" y1="0%" x2="100%" y2="100%">
      <stop offset="0%" style="stop-color:#6366f1"/>
      <stop offset="100%" style="stop-color:#4f46e5"/>
    </linearGradient>
    <linearGradient id="card" x1="0%" y1="0%" x2="0%" y2="100%">
      <stop offset="0%" style="stop-color:#ffffff"/>
      <stop offset="100%" style="stop-color:#f8fafc"/>
    </linearGradient>
  </defs>
  
  <rect width="1400" height="560" fill="url(#bg)"/>
  
  <circle cx="100" cy="100" r="200" fill="rgba(255,255,255,0.05)"/>
  <circle cx="1300" cy="460" r="250" fill="rgba(255,255,255,0.05)"/>
  <circle cx="700" cy="600" r="150" fill="rgba(255,255,255,0.03)"/>
  
  <g transform="translate(80, 100)">
    <rect width="500" height="360" rx="16" fill="url(#card)" opacity="0.98"/>
    
    <rect x="20" y="20" width="460" height="50" rx="10" fill="#f1f5f9"/>
    <circle cx="45" cy="45" r="15" fill="#e2e8f0"/>
    <rect x="70" y="38" width="200" height="14" rx="7" fill="#cbd5e1"/>
    <rect x="400" y="35" width="60" height="20" rx="10" fill="#6366f1"/>
    
    <g transform="translate(20, 90)">
      <rect width="220" height="250" rx="12" fill="#f8fafc" stroke="#e2e8f0" stroke-width="1"/>
      <rect x="10" y="10" width="80" height="10" rx="5" fill="#6366f1"/>
      <rect x="100" y="12" width="30" height="6" rx="3" fill="#cbd5e1"/>
      
      <g transform="translate(10, 35)">
        <rect width="200" height="45" rx="8" fill="white" stroke="#e2e8f0" stroke-width="1"/>
        <circle cx="22" cy="22" r="14" fill="#fbbf24"/>
        <rect x="45" y="12" width="100" height="8" rx="4" fill="#334155"/>
        <rect x="45" y="26" width="70" height="6" rx="3" fill="#94a3b8"/>
      </g>
      
      <g transform="translate(10, 90)">
        <rect width="200" height="45" rx="8" fill="white" stroke="#e2e8f0" stroke-width="1"/>
        <circle cx="22" cy="22" r="14" fill="#22c55e"/>
        <rect x="45" y="12" width="120" height="8" rx="4" fill="#334155"/>
        <rect x="45" y="26" width="80" height="6" rx="3" fill="#94a3b8"/>
      </g>
      
      <g transform="translate(10, 145)">
        <rect width="200" height="45" rx="8" fill="white" stroke="#e2e8f0" stroke-width="1"/>
        <circle cx="22" cy="22" r="14" fill="#f43f5e"/>
        <rect x="45" y="12" width="90" height="8" rx="4" fill="#334155"/>
        <rect x="45" y="26" width="60" height="6" rx="3" fill="#94a3b8"/>
      </g>
      
      <g transform="translate(10, 200)">
        <rect width="200" height="45" rx="8" fill="white" stroke="#e2e8f0" stroke-width="1"/>
        <circle cx="22" cy="22" r="14" fill="#3b82f6"/>
        <rect x="45" y="12" width="110" height="8" rx="4" fill="#334155"/>
        <rect x="45" y="26" width="75" height="6" rx="3" fill="#94a3b8"/>
      </g>
    </g>
    
    <g transform="translate(260, 90)">
      <rect width="220" height="250" rx="12" fill="#f8fafc" stroke="#e2e8f0" stroke-width="1"/>
      <rect x="10" y="10" width="100" height="10" rx="5" fill="#22c55e"/>
      <rect x="120" y="12" width="25" height="6" rx="3" fill="#cbd5e1"/>
      
      <g transform="translate(10, 35)">
        <rect width="200" height="45" rx="8" fill="white" stroke="#e2e8f0" stroke-width="1"/>
        <circle cx="22" cy="22" r="14" fill="#8b5cf6"/>
        <rect x="45" y="12" width="95" height="8" rx="4" fill="#334155"/>
        <rect x="45" y="26" width="65" height="6" rx="3" fill="#94a3b8"/>
      </g>
      
      <g transform="translate(10, 90)">
        <rect width="200" height="45" rx="8" fill="white" stroke="#e2e8f0" stroke-width="1"/>
        <circle cx="22" cy="22" r="14" fill="#ec4899"/>
        <rect x="45" y="12" width="115" height="8" rx="4" fill="#334155"/>
        <rect x="45" y="26" width="85" height="6" rx="3" fill="#94a3b8"/>
      </g>
      
      <g transform="translate(10, 145)">
        <rect width="200" height="45" rx="8" fill="white" stroke="#e2e8f0" stroke-width="1"/>
        <circle cx="22" cy="22" r="14" fill="#14b8a6"/>
        <rect x="45" y="12" width="80" height="8" rx="4" fill="#334155"/>
        <rect x="45" y="26" width="55" height="6" rx="3" fill="#94a3b8"/>
      </g>
    </g>
  </g>
  
  <g transform="translate(700, 140)">
    <text x="0" y="0" font-family="Arial, sans-serif" font-size="72" font-weight="700" fill="white">QuickMark</text>
    <text x="0" y="60" font-family="Arial, sans-serif" font-size="28" fill="rgba(255,255,255,0.9)">Smart Bookmark Manager</text>
    <text x="0" y="100" font-family="Arial, sans-serif" font-size="28" fill="rgba(255,255,255,0.9)">新标签页智能书签管理器</text>
    
    <g transform="translate(0, 150)">
      <g transform="translate(0, 0)">
        <circle cx="16" cy="16" r="16" fill="rgba(255,255,255,0.2)"/>
        <path d="M16 8l2 4 4.5 0.8-3.2 3.2 0.8 4.5-4-2-4 2 0.8-4.5-3.2-3.2 4.5-0.8z" fill="#fbbf24"/>
        <text x="45" y="22" font-family="Arial, sans-serif" font-size="18" fill="white">One-Click Save</text>
      </g>
      <g transform="translate(0, 50)">
        <circle cx="16" cy="16" r="16" fill="rgba(255,255,255,0.2)"/>
        <rect x="8" y="8" width="16" height="16" rx="2" fill="none" stroke="white" stroke-width="2"/>
        <rect x="10" y="12" width="12" height="2" fill="white"/>
        <rect x="10" y="16" width="12" height="2" fill="white"/>
        <text x="45" y="22" font-family="Arial, sans-serif" font-size="18" fill="white">Smart Groups</text>
      </g>
      <g transform="translate(0, 100)">
        <circle cx="16" cy="16" r="16" fill="rgba(255,255,255,0.2)"/>
        <ellipse cx="16" cy="14" rx="10" ry="6" fill="none" stroke="white" stroke-width="2"/>
        <ellipse cx="16" cy="18" rx="10" ry="6" fill="none" stroke="white" stroke-width="2"/>
        <text x="45" y="22" font-family="Arial, sans-serif" font-size="18" fill="white">Cloud Sync</text>
      </g>
      <g transform="translate(250, 0)">
        <circle cx="16" cy="16" r="16" fill="rgba(255,255,255,0.2)"/>
        <rect x="10" y="8" width="12" height="16" rx="2" fill="none" stroke="white" stroke-width="2"/>
        <circle cx="16" cy="14" r="2" fill="white"/>
        <text x="45" y="22" font-family="Arial, sans-serif" font-size="18" fill="white">Tags System</text>
      </g>
      <g transform="translate(250, 50)">
        <circle cx="16" cy="16" r="16" fill="rgba(255,255,255,0.2)"/>
        <circle cx="14" cy="14" r="6" fill="none" stroke="white" stroke-width="2"/>
        <line x1="18" y1="18" x2="24" y2="24" stroke="white" stroke-width="2" stroke-linecap="round"/>
        <text x="45" y="22" font-family="Arial, sans-serif" font-size="18" fill="white">Instant Search</text>
      </g>
      <g transform="translate(250, 100)">
        <circle cx="16" cy="16" r="16" fill="rgba(255,255,255,0.2)"/>
        <path d="M20 8c-5 0-9 4-9 9s4 9 9 9c-3 0-6-3-6-7s3-7 6-7c0-2-0-4 0-4z" fill="white"/>
        <text x="45" y="22" font-family="Arial, sans-serif" font-size="18" fill="white">Dark Mode</text>
      </g>
    </g>
  </g>
</svg>
