<svg xmlns="http://www.w3.org/2000/svg" viewBox="0 0 440 280">
  <defs>
    <linearGradient id="bg" x1="0%" y1="0%" x2="100%" y2="100%">
      <stop offset="0%" style="stop-color:#6366f1"/>
      <stop offset="100%" style="stop-color:#4f46e5"/>
    </linearGradient>
    <linearGradient id="card" x1="0%" y1="0%" x2="0%" y2="100%">
      <stop offset="0%" style="stop-color:#ffffff"/>
      <stop offset="100%" style="stop-color:#f8fafc"/>
    </linearGradient>
  </defs>
  
  <rect width="440" height="280" fill="url(#bg)"/>
  
  <rect x="20" y="60" width="180" height="160" rx="12" fill="url(#card)" opacity="0.95"/>
  <rect x="30" y="75" width="60" height="8" rx="4" fill="#e2e8f0"/>
  <rect x="30" y="90" width="100" height="6" rx="3" fill="#cbd5e1"/>
  <rect x="30" y="105" width="80" height="6" rx="3" fill="#cbd5e1"/>
  
  <rect x="30" y="125" width="160" height="35" rx="8" fill="#f1f5f9"/>
  <circle cx="48" cy="142" r="10" fill="#fbbf24"/>
  <rect x="65" y="137" width="80" height="5" rx="2.5" fill="#64748b"/>
  <rect x="65" y="147" width="50" height="4" rx="2" fill="#94a3b8"/>
  
  <rect x="30" y="168" width="160" height="35" rx="8" fill="#f1f5f9"/>
  <circle cx="48" cy="185" r="10" fill="#22c55e"/>
  <rect x="65" y="180" width="70" height="5" rx="2.5" fill="#64748b"/>
  <rect x="65" y="190" width="60" height="4" rx="2" fill="#94a3b8"/>
  
  <text x="310" y="115" font-family="Arial, sans-serif" font-size="28" font-weight="700" fill="white" text-anchor="middle">QuickMark</text>
  <text x="310" y="145" font-family="Arial, sans-serif" font-size="14" fill="rgba(255,255,255,0.9)" text-anchor="middle">Smart Bookmark Manager</text>
  <text x="310" y="165" font-family="Arial, sans-serif" font-size="14" fill="rgba(255,255,255,0.9)" text-anchor="middle">智能书签管理器</text>
  
  <g transform="translate(260, 190)">
    <rect width="100" height="32" rx="16" fill="white"/>
    <text x="50" y="21" font-family="Arial, sans-serif" font-size="12" font-weight="600" fill="#6366f1" text-anchor="middle">Add to Chrome</text>
  </g>
</svg>
